<svg width="26" height="28" viewBox="0 0 26 28" fill="none" xmlns="http://www.w3.org/2000/svg"><path d="M17.3327 18.0106C17.0611 18.3031 16.9095 18.8723 16.9959 19.2753L17.4569 21.427C17.8208 23.125 16.9793 23.7878 15.587 22.8998L13.642 21.6593C13.2888 21.434 12.7109 21.434 12.3578 21.6593L10.4127 22.8998C9.02046 23.7878 8.17892 23.1251 8.54281 21.427L9.0039 19.2753C9.09022 18.8723 8.93861 18.3031 8.667 18.0106L7.05348 16.2728C6.1011 15.2472 6.40897 14.2131 7.73728 13.9747L9.80769 13.603C10.1558 13.5405 10.5699 13.2113 10.7276 12.8713L11.8729 10.4044C12.4929 9.06923 13.5072 9.06923 14.127 10.4044L15.2724 12.8713C15.4302 13.2113 15.8442 13.5405 16.1923 13.603L18.2627 13.9747C19.5911 14.2131 19.8989 15.2472 18.9465 16.2728L17.3327 18.0106ZM7.80003 11.9334C8.15884 11.9334 8.45003 11.6198 8.45003 11.2334V4.70023C8.45003 4.31382 8.15884 4.00023 7.80003 4.00023C7.44123 4.00007 7.15003 4.31366 7.15003 4.70007V11.2333C7.15003 11.6198 7.44123 11.9334 7.80003 11.9334ZM18.2 11.9334C18.5588 11.9334 18.85 11.6198 18.85 11.2334V4.70023C18.85 4.31382 18.5588 4.00023 18.2 4.00023C17.8412 4.00023 17.55 4.31382 17.55 4.70023V11.2334C17.55 11.6198 17.8412 11.9334 18.2 11.9334ZM13 7.26663C13.3588 7.26663 13.65 6.95304 13.65 6.56663V4.69991C13.65 4.3135 13.3588 3.99991 13 3.99991C12.6412 3.99991 12.35 4.3135 12.35 4.69991V6.56663C12.35 6.95304 12.6412 7.26663 13 7.26663Z" fill="white"></path></svg>